<?xml version="1.0"?>
<svg xmlns="http://www.w3.org/2000/svg" xmlns:xlink="http://www.w3.org/1999/xlink" xmlns:svgjs="http://svgjs.com/svgjs" version="1.1" width="512" height="512" x="0" y="0" viewBox="0 0 150 150" style="enable-background:new 0 0 512 512" xml:space="preserve" class=""><g><circle xmlns="http://www.w3.org/2000/svg" cx="75" cy="75" fill="#1a4a73" r="64" data-original="#efc84a" style="" class=""/><path xmlns="http://www.w3.org/2000/svg" d="m81.539 81.54h6.474v6.474h-6.474z" fill="#c2c717" transform="matrix(.707 -.707 .707 .707 -35.116 84.777)" data-original="#2f4859" style="" class=""/><circle xmlns="http://www.w3.org/2000/svg" cx="64.052" cy="64.515" fill="#fdfdfd" opacity=".25" r="26.57" data-original="#ebf0f3" style="" class=""/><path xmlns="http://www.w3.org/2000/svg" d="m43.353 43.353a28.729 28.729 0 1 0 40.63 0 28.732 28.732 0 0 0 -40.63 0zm36.187 36.186a22.442 22.442 0 1 1 0-31.743 22.441 22.441 0 0 1 0 31.743z" fill="#c2c717" data-original="#3a556a" style="" class=""/><rect xmlns="http://www.w3.org/2000/svg" fill="#c2c717" height="35.498" rx="1.083" transform="matrix(.707 -.707 .707 .707 -40.773 98.433)" width="12.802" x="92.031" y="80.684" data-original="#3a556a" style="" class=""/><path xmlns="http://www.w3.org/2000/svg" d="m81.781 87.098h12.802v2.168h-12.802z" fill="#e1e6e9" transform="matrix(.707 -.707 .707 .707 -36.526 88.182)" data-original="#e1e6e9" style="" class=""/><g xmlns="http://www.w3.org/2000/svg" fill="#fff" opacity=".25"><circle cx="66.488" cy="52.845" r="5.217" transform="matrix(.383 -.924 .924 .383 -7.779 94.049)" fill="#ffffff" data-original="#ffffff" style="" class=""/><circle cx="65.851" cy="63.209" r="2.609" transform="matrix(.383 -.924 .924 .383 -17.747 99.858)" fill="#ffffff" data-original="#ffffff" style="" class=""/></g></g></svg>
